<?xml version="1.0" encoding="utf-8"?>
<!-- Generator: Adobe Illustrator 17.1.0, SVG Export Plug-In . SVG Version: 6.00 Build 0)  -->
<!DOCTYPE svg PUBLIC "-//W3C//DTD SVG 1.1//EN" "http://www.w3.org/Graphics/SVG/1.1/DTD/svg11.dtd">
<svg version="1.1" id="svg2474" xmlns:svg="http://www.w3.org/2000/svg"
	 xmlns="http://www.w3.org/2000/svg" xmlns:xlink="http://www.w3.org/1999/xlink" x="0px" y="0px" viewBox="0 0 1024 598"
	 enable-background="new 0 0 1024 598" xml:space="preserve">
<path id="path2465" fill="#C3C4C8" d="M26.8,272.4c-2.1,0-3.7,1.6-4,3.9l-7.2,55l7.2,54c0.3,2.3,1.9,3.9,4,3.9c2,0,3.6-1.6,3.9-3.8
	l0,0v0c0,0,0,0,0,0l8.6-54l-8.6-55C30.4,274,28.8,272.4,26.8,272.4z M67.5,242.4c-0.3-2.4-2-4-4.1-4c-2.1,0-3.8,1.7-4.1,4
	c0,0-9.7,88.9-9.7,88.9l9.7,86.9c0.3,2.3,2,4,4.1,4c2.1,0,3.8-1.6,4.1-4l11.1-86.9L67.5,242.4z M220.8,160.4c-4,0-7.3,3.3-7.5,7.4
	l-7.7,163.5l7.7,105.7c0.2,4.1,3.5,7.4,7.5,7.4c4,0,7.3-3.3,7.5-7.4v0l8.8-105.7l-8.8-163.5C228.1,163.6,224.8,160.4,220.8,160.4z
	 M141.4,217.2c-3.1,0-5.6,2.4-5.8,5.7l-8.7,108.3l8.7,104.8c0.2,3.2,2.7,5.7,5.8,5.7c3,0,5.5-2.4,5.8-5.7l9.9-104.8l-9.9-108.4
	C147,219.7,144.5,217.2,141.4,217.2z M301.4,444.4c4.9,0,9-4,9.2-9.1l7.6-103.9l-7.6-217.7c-0.2-5.1-4.2-9.1-9.2-9.1
	c-5,0-9,4-9.2,9.1c0,0-6.7,217.7-6.7,217.7l6.7,103.9C292.4,440.4,296.4,444.4,301.4,444.4z M466.5,444.8c6.8,0,12.4-5.6,12.6-12.5
	v0.1v-0.1l5.3-100.9L479.1,80c-0.1-6.9-5.7-12.5-12.6-12.5c-6.8,0-12.5,5.6-12.6,12.5l-4.7,251.3c0,0.2,4.7,101.1,4.7,101.1
	C454,439.2,459.7,444.8,466.5,444.8z M383.3,444.5c5.9,0,10.7-4.8,10.9-10.8v0.1l6.4-102.3l-6.5-219.3c-0.2-6.1-4.9-10.8-10.9-10.8
	c-6,0-10.7,4.7-10.9,10.8l-5.7,219.3l5.7,102.3C372.6,439.7,377.4,444.5,383.3,444.5z M181,443.5c3.5,0,6.4-2.8,6.6-6.5l9.3-105.7
	l-9.3-100.5c-0.3-3.7-3.1-6.5-6.6-6.5c-3.6,0-6.4,2.8-6.7,6.6l-8.2,100.5l8.2,105.7C174.5,440.7,177.4,443.5,181,443.5z
	 M102.3,437.7c2.6,0,4.7-2,5-4.8l10.5-101.6l-10.5-105.5c-0.3-2.8-2.4-4.9-5-4.9c-2.6,0-4.7,2-5,4.9c0,0-9.2,105.5-9.2,105.5
	l9.2,101.6C97.5,435.7,99.6,437.7,102.3,437.7z M424.8,108.5c-6.4,0-11.6,5.1-11.7,11.7l-5.2,211.3l5.2,101.7
	c0.1,6.5,5.3,11.6,11.7,11.6c6.4,0,11.6-5.1,11.7-11.7v0.1l5.9-101.7l-5.9-211.3C436.3,113.6,431.2,108.5,424.8,108.5z M261,444.6
	c4.4,0,8.1-3.6,8.3-8.3l8.2-105l-8.2-200.9c-0.2-4.6-3.9-8.3-8.3-8.3c-4.5,0-8.2,3.6-8.3,8.3c0,0-7.2,200.9-7.2,200.9l7.2,105
	C252.8,440.9,256.5,444.6,261,444.6z M352.2,434.7L352.2,434.7l7-103.3l-7-225c-0.2-5.6-4.6-10-10-10c-5.5,0-9.9,4.4-10,10l-6.2,225
	l6.2,103.3c0.1,5.5,4.6,9.9,10,9.9C347.7,444.6,352.1,440.2,352.2,434.7L352.2,434.7z M883.5,201.7c-16.7,0-32.6,3.4-47.1,9.5
	C826.8,101.4,734.8,15.3,622.5,15.3c-27.5,0-54.2,5.4-77.9,14.5c-9.2,3.6-11.6,7.2-11.7,14.3v386.3c0.1,7.5,5.9,13.7,13.1,14.4
	c0.3,0,335.2,0.2,337.4,0.2c67.2,0,121.7-54.5,121.7-121.7S950.7,201.7,883.5,201.7z M508.1,43.9c-7.3,0-13.3,6-13.4,13.4
	l-5.5,274.2l5.5,99.5c0.1,7.3,6.1,13.3,13.4,13.3c7.3,0,13.3-6,13.4-13.4v0.1l6-99.5l-6-274.2C521.4,49.9,515.4,43.9,508.1,43.9z
	 M113.9,522.5c-14.4-3.4-18.3-5.2-18.3-10.9c0-4,3.2-8.2,13-8.2c8.3,0,14.8,3.4,20.6,9.3l13.1-12.7c-8.6-9-18.9-14.3-33.1-14.3
	c-17.9,0-32.5,10.1-32.5,26.6c0,17.9,11.7,23.2,28.4,27.1c17.1,3.9,20.2,6.5,20.2,12.3c0,6.9-5.1,9.9-15.8,9.9
	c-8.7,0-16.9-3-23.2-10.4L73.3,563c6.9,10.1,20.1,16.5,35.3,16.5c24.8,0,35.7-11.7,35.7-28.9C144.3,530.8,128.3,525.9,113.9,522.5z
	 M197.5,485.8c-24.8,0-39.4,19.2-39.4,46.8s14.7,46.8,39.4,46.8s39.5-19.2,39.5-46.8S222.3,485.8,197.5,485.8z M197.5,561.5
	c-14.7,0-20.8-12.6-20.8-28.8c0-16.2,6.1-28.8,20.8-28.8c14.7,0,20.8,12.6,20.8,28.8C218.2,548.9,212.2,561.5,197.5,561.5z
	 M310.2,538.2c0,14.5-7.2,23.5-18.7,23.5c-11.5,0-18.6-9.2-18.6-23.7v-50.8h-18.2v51c0,26.5,14.8,41.3,36.7,41.3
	c23.1,0,36.9-15.2,36.9-41.5v-50.8h-18.2V538.2L310.2,538.2z M406.8,525.6c0,5.1,0.3,16.5,0.3,19.8c-1.2-2.3-4.2-6.9-6.4-10.3
	l-32.2-48h-17.4v90.8H369v-40c0-5.1-0.3-16.5-0.3-19.8c1.2,2.3,4.2,6.9,6.4,10.3l33.4,49.6h16.2v-90.8h-17.9V525.6L406.8,525.6z
	 M476.5,487.2H448v90.8h27.1c23.4,0,46.5-13.5,46.5-45.4C521.6,499.4,502.4,487.2,476.5,487.2z M475.2,560.4h-8.9v-55.5h9.6
	c19.2,0,27.1,9.2,27.1,27.8C502.9,549.3,494.2,560.4,475.2,560.4z M577.8,503.8c8.2,0,13.4,3.6,16.6,9.9l16.9-7.8
	c-5.7-11.8-16.1-20.1-33.2-20.1c-23.7,0-40.3,19.2-40.3,46.8c0,28.7,16,46.8,39.7,46.8c16.5,0,27.4-7.7,33.6-20.5l-15.3-9.1
	c-4.8,8.1-9.6,11.6-17.8,11.6c-13.6,0-21.5-12.5-21.5-28.8C556.4,515.8,564.2,503.8,577.8,503.8z M645.2,487.2H627v90.8h54.6v-17.9
	h-36.4V487.2z M729.5,485.8c-24.8,0-39.5,19.2-39.5,46.8s14.7,46.8,39.5,46.8c24.8,0,39.4-19.2,39.4-46.8S754.3,485.8,729.5,485.8z
	 M729.5,561.5c-14.7,0-20.8-12.6-20.8-28.8c0-16.2,6.1-28.8,20.8-28.8c14.6,0,20.7,12.6,20.7,28.8
	C750.2,548.9,744.1,561.5,729.5,561.5z M842.2,538.2c0,14.5-7.1,23.5-18.7,23.5c-11.6,0-18.6-9.2-18.6-23.7v-50.8h-18.2v51
	c0,26.5,14.8,41.3,36.7,41.3c23.1,0,36.8-15.2,36.8-41.5v-50.8h-18.2V538.2z M911.5,487.2h-28.4v90.8h27.1
	c23.4,0,46.5-13.5,46.5-45.4C956.7,499.4,937.5,487.2,911.5,487.2z M910.2,560.4h-9v-55.5h9.6c19.2,0,27.1,9.2,27.1,27.8
	C938,549.3,929.3,560.4,910.2,560.4z"/>
</svg>
